<?xml version="1.0" encoding="UTF-8"?>
<svg id="Layer_1" data-name="Layer 1" xmlns="http://www.w3.org/2000/svg" viewBox="0 0 103.46 64.05">
  <defs>
    <style>
      .cls-1 {
        fill: #d4d5df;
        stroke-width: 0px;
      }
    </style>
  </defs>
  <path class="cls-1" d="m9.85,29.56h4.93v-4.93h4.93v-4.92h14.79v4.92h4.93v4.93h4.92v14.78h-4.92v4.93h-4.93v4.93h-14.79v-4.93h-4.93v-4.93h-4.93v-14.78Zm49.27,0h4.92v-4.93h4.93v-4.92h14.79v4.92h4.93v4.93h4.93v14.78h-4.93v4.93h-4.93v4.93h-14.79v-4.93h-4.93v-4.93h-4.92v-14.78Zm-19.7-19.7h4.92v-4.93h14.78v4.93h4.92v4.93h-4.92v4.93h-14.78v-4.93h-4.92v-4.93ZM34.49,0v4.93h-9.86v4.93H0v4.93h4.93v4.93h4.92v4.92h-4.92v4.93H0v19.7h4.93v9.86h9.85v4.93h73.91v-4.93h9.85v-9.86h4.93v-19.7h-4.93v-4.93h-4.92v-4.92h4.92v-4.93h4.93v-4.93h-24.63v-4.93h-9.86V0h-34.48Z"/>
  <rect class="cls-1" x="73.9" y="39.42" width="4.93" height="4.92"/>
  <rect class="cls-1" x="78.83" y="34.49" width="4.93" height="4.93"/>
  <rect class="cls-1" x="68.97" y="34.49" width="4.93" height="4.93"/>
  <polygon class="cls-1" points="34.49 34.49 34.49 39.42 29.56 39.42 29.56 44.34 24.63 44.34 24.63 39.42 19.7 39.42 19.7 34.49 24.63 34.49 24.63 29.56 29.56 29.56 29.56 34.49 34.49 34.49"/>
  <rect class="cls-1" x="73.9" y="29.56" width="4.93" height="4.93"/>
</svg>